<?xml version="1.0" standalone="no"?>
<!DOCTYPE svg PUBLIC "-//W3C//DTD SVG 1.1//EN" "http://www.w3.org/Graphics/SVG/1.1/DTD/svg11.dtd" >
<svg xmlns="http://www.w3.org/2000/svg">
<metadata>Generated by IcoMoon</metadata>
<defs>
<font id="icomoon" horiz-adv-x="1024">
<font-face units-per-em="1024" ascent="960" descent="-64" />
<missing-glyph horiz-adv-x="1024" />
<glyph unicode="&#x20;" horiz-adv-x="512" d="" />
<glyph unicode="&#xe900;" glyph-name="ajustes" d="M248.257 528.775c28.435 3.82 56.869-5.942 77.028-26.1l50.928-50.928 48.169 47.957-69.601 69.389c-10.822 10.822-10.822 28.435 0 39.257s28.435 10.822 39.257 0l69.601-69.601 48.169 47.957-51.14 51.14c-20.159 20.159-29.92 48.806-26.1 77.028 8.488 64.508-12.095 131.987-61.537 181.642-50.503 50.503-119.68 70.874-185.249 61.113-10.398-1.485-14.642-14.429-7.215-21.856l65.569-65.569c31.193-31.193 31.193-81.696 0-112.677l-40.318-40.318c-31.193-31.193-81.696-31.193-112.677 0l-65.781 65.569c-7.427 7.427-20.159 3.183-21.856-7.215-9.761-65.569 10.61-134.746 61.113-185.249 49.654-49.442 117.133-70.025 181.642-61.537zM656.102 442.411l-48.169-47.957 286.043-286.043c10.822-10.822 10.822-28.435 0-39.257s-28.435-10.822-39.257 0l-286.043 286.043-48.169-47.957 294.743-294.743c37.347-37.347 97.823-37.135 135.17 0.212s37.347 97.823 0.212 135.17l-294.531 294.531zM766.657 633.389h127.107l127.107 254.001-63.447 63.447-254.213-126.894v-127.107l-345.458-344.397-62.174 61.962-250.394-250.394c-52.201-52.201-52.201-136.656 0-188.856s136.656-52.201 188.856 0l250.394 250.394-63.447 63.447 345.671 344.397z" />
<glyph unicode="&#xe901;" glyph-name="alejar" d="M999.602-31.269l-287.271 298.755c73.273 73.485 118.667 174.791 118.667 286.517 0 223.878-182.118 405.996-405.996 405.996s-405.996-182.118-405.996-405.996 182.118-405.996 405.996-405.996c98.27 0 188.46 35.128 258.755 93.418l287.967-299.49c3.789-3.963 8.855-5.935 13.939-5.935 4.833 0 9.647 1.798 13.398 5.394 7.695 7.405 7.927 19.642 0.541 27.337zM560.333 515.337h-270.664c-21.344 0-38.666 17.323-38.666 38.666s17.323 38.666 38.666 38.666h270.664c21.344 0 38.666-17.323 38.666-38.666s-17.323-38.666-38.666-38.666z" />
<glyph unicode="&#xe902;" glyph-name="atomo" d="M1023.995 448.002c0 60.905-51.321 115.473-136.102 155.92 31.162 88.327 29.122 163.133-13.863 206.117-41.953 41.967-114.828 46.361-206.131 13.877-40.438 84.767-95.006 136.084-155.902 136.084s-115.464-51.321-155.911-136.102c-88.341 31.176-163.151 29.135-206.122-13.854-42.985-42.985-45.030-117.794-13.858-206.126-84.781-40.442-136.107-95.010-136.107-155.915s51.321-115.473 136.102-155.92c-31.162-88.327-29.122-163.133 13.863-206.117 23.687-23.696 57.147-35.565 98.243-35.565 31.687 0 68.136 7.503 107.906 21.647 40.442-84.749 95.001-136.047 155.888-136.047 60.891 0 115.45 51.302 155.892 136.056 39.765-14.149 76.219-21.647 107.901-21.647 41.092 0 74.556 11.869 98.243 35.565 42.98 42.98 45.030 117.781 13.868 206.108 84.776 40.442 136.088 95.015 136.088 155.92zM775.589 807.603c30.816 0 55.369-8.12 71.627-24.378 32.092-32.092 31.968-91.947 6.282-164.39-39.236 15.447-84.012 28.182-133.021 37.656-9.442 48.852-22.13 93.495-37.513 132.643 34.598 12.071 66.045 18.469 92.624 18.469zM739.209 476.392c7.305-9.474 14.222-18.934 20.988-28.385-6.766-9.451-13.683-18.915-20.988-28.385 0.216 9.391 0.345 18.846 0.345 28.38 0.005 9.538-0.129 18.994-0.345 28.389zM783.009 414.648c22.978-35.21 41.935-69.679 56.35-102.31-33.211-12.841-70.923-23.807-111.973-32.438 3.652 24.359 6.517 49.594 8.544 75.574 16.843 19.712 32.507 39.452 47.079 59.174zM735.934 540.539c-2.031 25.976-4.891 51.206-8.539 75.57 41.050-8.631 78.761-19.597 111.968-32.438-14.42-32.627-33.373-67.091-56.35-102.301-14.577 19.712-30.241 39.461-47.079 59.169zM646.092 313.908c-18.593-18.593-37.633-36.081-56.843-52.85-25.221-1.732-51.012-2.685-77.251-2.685-26.234 0-52.021 0.949-77.237 2.685-19.21 16.778-38.255 34.266-56.857 52.859-18.681 18.681-36.154 37.757-52.859 56.949-1.727 25.184-2.676 50.934-2.676 77.136s0.949 51.956 2.676 77.145c16.705 19.192 34.179 38.268 52.859 56.949 18.593 18.593 37.637 36.081 56.843 52.85 25.221 1.732 51.012 2.685 77.251 2.685 26.298 0 52.145-0.953 77.417-2.699 19.109-16.645 38.075-34.225 56.677-52.827 18.681-18.681 36.154-37.757 52.859-56.949 1.727-25.193 2.676-50.948 2.676-77.154 0-26.202-0.949-51.956-2.676-77.145-16.7-19.192-34.174-38.268-52.859-56.949zM692.807 307.88c-1.548-12.030-3.321-23.825-5.237-35.45-11.606-1.916-23.383-3.685-35.395-5.227 6.927 6.6 13.904 13.066 20.73 19.892 6.876 6.881 13.292 13.854 19.901 20.785zM540.714 220.805c-9.548-7.392-19.132-14.337-28.707-21.214-9.58 6.872-19.16 13.817-28.707 21.214 9.497-0.226 19.058-0.355 28.702-0.355 9.649 0 19.21 0.134 28.712 0.355zM371.838 267.198c-12.016 1.543-23.797 3.316-35.404 5.232-1.921 11.629-3.694 23.429-5.241 35.459 6.614-6.936 13.020-13.909 19.901-20.785 6.83-6.83 13.808-13.297 20.744-19.906zM331.198 588.12c1.548 12.030 3.321 23.825 5.237 35.45 11.606 1.916 23.383 3.685 35.395 5.227-6.927-6.6-13.904-13.066-20.73-19.892-6.876-6.881-13.287-13.854-19.901-20.785zM483.286 675.2c9.538 7.387 19.109 14.324 28.675 21.191 9.465-6.78 18.948-13.863 28.431-21.181-9.396 0.216-18.856 0.345-28.394 0.345-9.644 0-19.206-0.134-28.712-0.355zM652.134 628.802c12.025-1.548 23.816-3.321 35.436-5.237 1.921-11.62 3.689-23.411 5.237-35.436-6.609 6.936-13.016 13.909-19.896 20.785-6.876 6.876-13.845 13.278-20.776 19.887zM680.114 663.391c-24.364 3.652-49.598 6.512-75.579 8.539-19.763 16.884-39.553 32.585-59.321 47.185 34.708 22.637 69.122 41.469 102.527 56.069 12.813-33.17 23.751-70.817 32.373-111.793zM511.998 922.072c45.444 0 87.752-42.483 120.834-112.033-39.337-17.175-79.936-39.908-120.668-67.427-41.492 28.067-82.206 50.589-120.995 67.441 33.082 69.546 75.395 112.019 120.83 112.019zM376.356 775.414c32.663-14.434 67.183-33.423 102.425-56.429-19.924-14.715-39.77-30.305-59.399-47.061-25.944-2.026-51.15-4.887-75.487-8.539 8.631 41.073 19.606 78.807 32.461 112.028zM176.779 783.23c16.926 16.926 41.575 24.917 71.701 24.917 26.975 0 58.46-6.605 92.661-18.722-15.434-39.213-28.159-83.961-37.628-132.938-49.009-9.469-93.785-22.209-133.021-37.656-25.677 72.447-25.806 132.307 6.287 164.399zM284.796 419.636c-7.305 9.469-14.213 18.929-20.983 28.371 6.766 9.442 13.679 18.906 20.983 28.375-0.216-9.391-0.345-18.846-0.345-28.38 0-9.529 0.129-18.98 0.345-28.366zM288.070 355.484c2.031-25.981 4.896-51.22 8.544-75.588-41.050 8.631-78.761 19.597-111.968 32.438 14.42 32.631 33.377 67.095 56.355 102.31 14.568-19.712 30.232-39.452 47.070-59.16zM288.070 540.53c-16.838-19.708-32.502-39.448-47.074-59.164-22.978 35.21-41.93 69.674-56.35 102.306 33.211 12.841 70.918 23.802 111.968 32.433-3.648-24.364-6.517-49.598-8.544-75.574zM149.947 327.177c-69.541 33.078-112.014 75.385-112.014 120.825s42.478 87.747 112.019 120.83c16.829-38.734 39.319-79.388 67.33-120.825-28.016-41.442-50.506-82.096-67.335-120.83zM176.779 112.779c-32.092 32.092-31.968 91.947-6.282 164.39 39.236-15.447 84.012-28.182 133.021-37.656 9.442-48.857 22.135-93.504 37.518-132.657-74.708-26.063-133.983-24.359-164.256 5.923zM343.891 232.614c24.341-3.648 49.552-6.508 75.501-8.539 19.657-16.778 39.53-32.396 59.491-47.13-34.741-22.664-69.186-41.515-102.619-56.125-12.813 33.17-23.751 70.812-32.373 111.793zM511.998-26.072c-45.444 0-87.752 42.483-120.834 112.033 39.388 17.198 80.051 39.968 120.843 67.537 40.788-27.565 81.447-50.335 120.83-67.533-33.082-69.55-75.385-112.037-120.839-112.037zM647.745 120.825c-33.428 14.609-67.874 33.46-102.61 56.12 19.956 14.738 39.83 30.351 59.487 47.13 25.948 2.026 51.15 4.887 75.487 8.539-8.617-40.977-19.556-78.623-32.364-111.789zM847.225 112.788c-30.291-30.301-89.557-32.009-164.252-5.927 15.383 39.144 28.072 83.791 37.518 132.648 49.009 9.474 93.79 22.213 133.025 37.656 25.672-72.433 25.792-132.288-6.291-164.376zM874.058 327.177c-16.829 38.734-39.319 79.392-67.33 120.83 28.012 41.437 50.496 82.087 67.326 120.82 69.541-33.082 112.019-75.385 112.019-120.825s-42.473-87.742-112.014-120.825zM511.998 523.853c-41.833 0-75.851-34.027-75.851-75.851s34.017-75.851 75.851-75.851 75.851 34.027 75.851 75.851-34.017 75.851-75.851 75.851zM511.998 410.075c-20.905 0-37.928 17.009-37.928 37.928s17.018 37.928 37.928 37.928c20.905 0 37.928-17.009 37.928-37.928s-17.013-37.928-37.928-37.928z" />
<glyph unicode="&#xe903;" glyph-name="Back" d="M938.667 832h-640c-29.867 0-51.2-12.8-68.267-38.4l-230.4-345.6 230.4-345.6c17.067-21.333 38.4-38.4 68.267-38.4h640c46.933 0 85.333 38.4 85.333 85.333v597.333c0 46.933-38.4 85.333-85.333 85.333zM810.667 294.4l-59.733-59.733-153.6 153.6-153.6-153.6-59.733 59.733 153.6 153.6-153.6 153.6 59.733 59.733 153.6-153.6 153.6 153.6 59.733-59.733-153.6-153.6 153.6-153.6z" />
<glyph unicode="&#xe904;" glyph-name="boton-cancelar" d="M512 960c-281.6 0-512-230.4-512-512s230.4-512 512-512 512 230.4 512 512-230.4 512-512 512zM768 263.68l-71.68-71.68-184.32 184.32-184.32-184.32-71.68 71.68 184.32 184.32-184.32 184.32 71.68 71.68 184.32-184.32 184.32 184.32 71.68-71.68-184.32-184.32 184.32-184.32z" />
<glyph unicode="&#xe905;" glyph-name="boton-de-pausa" d="M512 960c-282.766 0-512-229.23-512-512s229.234-512 512-512 512 229.23 512 512-229.234 512-512 512zM448 320c0-17.672-14.328-32-32-32h-64c-17.672 0-32 14.328-32 32v256c0 17.672 14.328 32 32 32h64c17.672 0 32-14.328 32-32v-256zM704 320c0-17.672-14.328-32-32-32h-64c-17.672 0-32 14.328-32 32v256c0 17.672 14.328 32 32 32h64c17.672 0 32-14.328 32-32v-256z" />
<glyph unicode="&#xe906;" glyph-name="boton-de-stop" d="M512 960c-282.77 0-512-229.23-512-512s229.23-512 512-512 512 229.23 512 512-229.23 512-512 512zM672 320c0-17.674-14.326-32-32-32h-256c-17.674 0-32 14.326-32 32v256c0 17.674 14.326 32 32 32h256c17.674 0 32-14.326 32-32v-256z" />
<glyph unicode="&#xe907;" glyph-name="carpeta-abierta" d="M990.187 650.43c0 0-42.159 0-56.212 0-6.321 0-5.367 9.393-5.367 9.393v28.177c0 36.992-30.096 67.088-67.088 67.088h-458.994c-3.084 0-6.811 6.192-13.505 19.206-0.995 1.932-1.995 3.876-3.015 5.808-23.394 44.33-53.759 53.635-75.111 53.635h-119.416c-30.186 0-48.203-17.537-69.429-52.125-1.381-2.253-2.738-4.539-4.095-6.825-6.841-11.534-11.992-19.702-15.972-19.702h-34.898c-36.992 0-67.088-30.096-67.088-67.088v-557.734c0-32.782 23.641-60.129 54.762-65.934 3.763-1.321 7.891-2.064 12.326-2.064h818.441c22.139 0 43.425 17.833 47.304 39.629l90.553 508.904c3.881 21.799-11.060 39.632-33.199 39.632zM67.091 701.417h34.898c34.857 0 51.272 27.681 62.135 45.996 1.217 2.050 2.434 4.106 3.673 6.129 10.802 17.6 19.244 26.527 29.501 26.527h113.602c3.571 0 14.445 0 27.643-25.014 0.932-1.768 1.845-3.544 2.755-5.312 9.898-19.244 24.861-48.323 61.23-48.323h458.994c7.272 0 13.417-6.145 13.417-13.417v-26.834c0 0 0.836-10.736-5.367-10.736-174.457 0-697.828 0-697.828 0-22.139 0-43.425-17.833-47.304-39.629l-67.332-378.412c0 0-3.437-12.663-3.437 10.819 0 111.198 0 444.79 0 444.79 0 7.272 6.145 13.417 13.42 13.417z" />
<glyph unicode="&#xe908;" glyph-name="descargar" d="M804.264 715.992h-124.561v244.008h-335.408v-244.008h-124.561l292.264-320.252zM0 305.485v-369.485h1024v369.485h-1024zM696.742 89.072c-17.49 0-31.67 14.18-31.67 31.67s14.18 31.67 31.67 31.67c17.49 0 31.67-14.18 31.67-31.67s-14.18-31.67-31.67-31.67zM844.536 89.072c-17.49 0-31.67 14.18-31.67 31.67s14.18 31.67 31.67 31.67c17.49 0 31.67-14.18 31.67-31.67s-14.18-31.67-31.67-31.67z" />
<glyph unicode="&#xe909;" glyph-name="flechas-de-avance-rapido" d="M1013.138 876.003c-7.239 7.239-15.815 10.86-25.721 10.86h-73.137c-9.903 0-18.477-3.621-25.713-10.86-7.245-7.243-10.862-15.815-10.862-25.721v-387.424c-1.911 4.185-4.383 7.804-7.439 10.856l-405.711 405.713c-7.237 7.235-13.326 9.713-18.285 7.423-4.952-2.284-7.427-8.38-7.427-18.283v-405.709c-1.901 4.185-4.377 7.804-7.423 10.856l-405.707 405.713c-7.239 7.235-13.332 9.713-18.283 7.423-4.954-2.284-7.429-8.38-7.429-18.283v-841.132c0-9.903 2.484-16.008 7.435-18.295 4.952-2.282 11.044 0.198 18.283 7.445l405.707 405.709c3.042 3.418 5.524 7.043 7.423 10.85v-405.709c0-9.903 2.476-16 7.427-18.281s11.048 0.2 18.285 7.439l405.711 405.709c3.048 3.424 5.528 7.053 7.433 10.864v-387.422c0-9.903 3.623-18.471 10.862-25.713 7.233-7.239 15.807-10.858 25.713-10.858h73.145c9.895 0 18.477 3.619 25.719 10.858 7.233 7.239 10.858 15.807 10.858 25.713v804.537c-0.010 9.919-3.625 18.483-10.864 25.721z" />
<glyph unicode="&#xe90a;" glyph-name="flechas-de-retro-rapido" d="M11.609 19.065c7.206-7.206 15.812-10.808 25.82-10.808l73.257 0.2c10.008 0 18.414 3.603 25.82 10.808 7.206 7.206 10.808 15.812 10.808 25.82l-0.6 387.503c2.002-4.203 4.403-7.806 7.406-10.808l407.318-405.116c7.206-7.206 13.41-9.608 18.414-7.406s7.406 8.407 7.406 18.214l-0.801 405.917c2.002-4.203 4.403-7.806 7.406-10.808l407.318-405.116c7.206-7.206 13.41-9.608 18.414-7.406s7.406 8.407 7.406 18.214l-1.401 841.257c0 9.808-2.602 16.013-7.406 18.214-5.004 2.202-11.009-0.2-18.214-7.406l-406.317-406.518c-3.002-3.403-5.604-7.005-7.406-10.808l-0.6 405.717c0 9.808-2.602 16.013-7.406 18.214-5.004 2.202-11.009-0.2-18.214-7.406l-406.117-406.518c-3.002-3.403-5.604-7.005-7.406-10.808l-0.6 387.503c0 9.808-3.603 18.414-11.009 25.62-7.206 7.206-15.812 10.808-25.82 10.808l-73.257-0.2c-10.008 0-18.414-3.603-25.82-10.808-7.206-7.206-10.808-15.812-10.808-25.82l1.401-804.629c0.2-9.808 3.803-18.414 11.009-25.62z" />
<glyph unicode="&#xe90b;" glyph-name="go_to" d="M24.275 732.813c2.468-0.815 5.158-1.384 8.22-1.384 314.753-0.327 629.465-12.009 944.179-3.15 4.107 0.118 7.693 1.035 10.76 2.542 7.13 2.119 13.504 7.163 16.67 15.95 0.124 0.327 0.201 0.676 0.32 1.007 1.838 3.475 3.078 7.388 3.643 11.538 7.991 25.764 12.665 52.298 15.819 79.119 0.453 3.863-0.456 7.499-2.136 10.814-2.801 9.336-10.472 17.134-23.035 17.511-321.975 9.735-644.382 18.396-966.22 0-1.014-0.050-1.894-0.288-2.834-0.432-9.67-0.159-18.784-5.567-21.446-18.047-6.45-30.239-10.115-60.773-7.205-91.662 1.341-14.248 12.050-22.185 23.264-23.807zM53.586 817.409c303.407 16.24 607.311 9.077 910.844 0.011-1.461-13.051-2.978-26.084-4.504-39.12-303.126-7.854-606.243 2.683-909.377 3.401 0.192 11.961 1.188 23.839 3.037 35.709zM794.040 378.488c7.327 7.239 10.206 18.119 2.481 29.346-1.131 1.637-2.38 3.132-3.531 4.75-0.035 0.033-0.046 0.087-0.076 0.122-75.483 107.673-176.514 188.444-282.375 264.83-3.708 2.679-7.379 4.074-10.915 4.582-6.902 4.815-15.939 5.668-25.121-1.317-105.546-80.32-190.537-180.054-243.665-302.256-5.953-13.681-0.148-26.523 9.227-33.784 5.7-5.624 13.716-9.088 23.429-7.715l105.995 15.152c-2.359-70.589-4.726-136.607-7.13-235.9-0.796-2.125-1.406-4.406-1.565-7.006-1.212-19.438-2.496-38.865-3.721-58.303-4.942-15.695 2.553-34.625 23.168-32.356 83.409 9.166 166.722 12.508 250.595 9.764 3.054-0.098 5.735 0.366 8.236 1.064 13.792-1.075 28.138 7.161 27.573 24.971-3.013 92.795-6.088 216.663-9.188 309.445 38.83 2.492 77.652 4.584 116.582 4.77 9.245 0.057 15.852 4.107 20.003 9.842zM630.843 414.229c-14.832-0.996-23.078-11.876-24.718-23.445-0.885-2.723-1.428-5.689-1.317-9.099 3.002-89.962 5.977-211.006 8.9-300.957-55.513 1.262-110.81-0.331-166.081-4.307 1.064 2.459 1.798 5.182 1.96 8.314 7.163 143.491 3.956 173.778 3.776 317.382-0.011 14.392-11.008 21.664-22.163 21.895-2.402 0.676-5.031 1.042-8.070 0.774-27.58-2.324-55.225-3.388-82.849-4.837 43.098 74.43 97.654 139.844 163.112 196.619 0.432 0.377 0.715 0.796 1.112 1.179 80.010-58.602 157.008-120.868 218.865-198.287-30.848-1.247-61.686-3.17-92.527-5.232z" />
<glyph unicode="&#xe90c;" glyph-name="gobernante" d="M1020.207-31.094l-689.635 982.204c-5.237 7.461-14.708 10.664-23.399 7.918s-14.601-10.808-14.601-19.926v-271.673h104.49v-41.796h-104.49v-104.49h104.49v-41.796h-104.49v-104.49h104.49v-41.796h-104.49v-104.49h104.49v-41.796h-104.49v-104.49h104.49v-41.796h-104.49v-83.592c0-11.542 9.356-20.898 20.898-20.898h689.633c7.797 0 14.946 4.343 18.543 11.26 3.597 6.919 3.041 15.266-1.438 21.646zM722.952 135.634c-3.54-7.080-10.775-11.552-18.691-11.552h-219.429c-11.542 0-20.898 9.356-20.898 20.898v292.571c0 8.994 5.755 16.982 14.29 19.826 8.533 2.846 17.928-0.090 23.326-7.287l219.429-292.571c4.748-6.332 5.515-14.806 1.973-21.884zM229.878 960h-208.98c-11.542 0-20.898-9.356-20.898-20.898v-114.939h110.295v-41.796h-110.295v-125.388h110.295v-41.796h-110.295v-146.286h110.295v-41.796h-110.295v-146.286h110.295v-41.796h-110.295v-125.388h110.295v-41.796h-110.295v-114.939c0-11.542 9.356-20.898 20.898-20.898h208.98c11.542 0 20.898 9.356 20.898 20.898v982.204c0 11.542-9.356 20.898-20.898 20.898z" />
<glyph unicode="&#xe90d;" glyph-name="logo-de-youtube" d="M921.6 837.12c-30.72 10.24-220.16 20.48-409.6 20.48s-378.88-10.24-409.6-20.48c-81.92-25.6-102.4-204.8-102.4-389.12s20.48-363.52 102.4-389.12c30.72-10.24 220.16-20.48 409.6-20.48s378.88 10.24 409.6 20.48c81.92 25.6 102.4 204.8 102.4 389.12s-20.48 363.52-102.4 389.12zM409.6 217.6v460.8l307.2-230.4-307.2-230.4z" />
<glyph unicode="&#xe90e;" glyph-name="menu" d="M268.22 737.528c0-25.276-20.472-45.748-45.748-45.748h-176.725c-25.276 0-45.748 20.472-45.748 45.748v176.725c0 25.276 20.472 45.748 45.748 45.748h176.725c25.276 0 45.748-20.472 45.748-45.748v-176.725zM646.11 914.252c0 25.276-20.472 45.748-45.748 45.748h-176.725c-25.276 0-45.748-20.472-45.748-45.748v-176.725c0-25.276 20.472-45.748 45.748-45.748h176.725c25.276 0 45.748 20.472 45.748 45.748v176.725zM1024 914.252c0 25.276-20.472 45.748-45.748 45.748h-176.725c-25.276 0-45.748-20.472-45.748-45.748v-176.725c0-25.276 20.472-45.748 45.748-45.748h176.725c25.276 0 45.748 20.472 45.748 45.748v176.725zM646.11 536.362c0 25.276-20.472 45.748-45.748 45.748h-176.725c-25.276 0-45.748-20.472-45.748-45.748v-176.725c0-25.276 20.472-45.748 45.748-45.748h176.725c25.276 0 45.748 20.472 45.748 45.748v176.725zM1024 536.362c0 25.276-20.472 45.748-45.748 45.748h-176.725c-25.276 0-45.748-20.472-45.748-45.748v-176.725c0-25.276 20.472-45.748 45.748-45.748h176.725c25.276 0 45.748 20.472 45.748 45.748v176.725zM268.22 536.362c0 25.276-20.472 45.748-45.748 45.748h-176.725c-25.276 0-45.748-20.472-45.748-45.748v-176.725c0-25.276 20.472-45.748 45.748-45.748h176.725c25.276 0 45.748 20.472 45.748 45.748v176.725zM600.362 204.22h-176.725c-25.276 0-45.748-20.472-45.748-45.748v-176.725c0-25.276 20.472-45.748 45.748-45.748h176.725c25.276 0 45.748 20.472 45.748 45.748v176.725c0 25.276-20.472 45.748-45.748 45.748zM801.528-64h176.725c25.276 0 45.748 20.472 45.748 45.748v176.725c0 25.276-20.472 45.748-45.748 45.748h-176.725c-25.276 0-45.748-20.472-45.748-45.748v-176.725c0-25.276 20.472-45.748 45.748-45.748zM222.472 204.22h-176.725c-25.276 0-45.748-20.472-45.748-45.748v-176.725c0-25.276 20.472-45.748 45.748-45.748h176.725c25.276 0 45.748 20.472 45.748 45.748v176.725c0 25.276-20.472 45.748-45.748 45.748z" />
<glyph unicode="&#xe90f;" glyph-name="molecula" d="M748.575 354.256l-109.605 71.089c14.067 40.103 10.893 84.895-9.49 122.909l89.9 80.315c49.388-30.81 115.203-24.796 158.135 18.138 49.974 49.972 49.974 130.999 0 180.973-49.977 49.974-131.009 49.974-180.978 0-39.368-39.368-47.698-97.982-25.057-145.532l-89.91-80.328c-43.039 29.786-97.941 34.993-145.122 15.56l-103.681 142.678c37.192 48.83 33.523 118.839-11.087 163.455-48.651 48.651-127.53 48.651-176.183 0-48.653-48.653-48.653-127.535 0-176.186 34.934-34.934 85.438-44.777 129.156-29.555l103.694-142.69c-51.206-60.061-48.477-150.347 8.3-207.121 1.091-1.091 2.212-2.112 3.336-3.167l-100.46-176.319c-41.754 9.874-87.499-1.444-120.062-34.012-49.974-49.977-49.974-131.009 0-180.978 49.974-49.974 131.004-49.974 180.975 0 49.452 49.447 49.941 129.289 1.518 179.378l100.453 176.301c50.445-14.485 106.848-2.504 147.388 35.925l109.71-71.143c-7.004-32.528 2.102-67.835 27.382-93.113 39.601-39.601 103.793-39.601 143.392 0 39.598 39.593 39.598 103.791 0 143.389-35.902 35.889-92.025 39.24-131.7 10.035zM212.812 92.394c-2.435-2.76-4.726-5.366-6.973-7.611-2.801-2.798-6.628-6.208-11.377-7.675-5.965-1.841-12.060-0.22-16.732 4.452-12.216 12.214-7.544 35.326 10.87 53.732 18.419 18.419 41.521 23.094 53.742 10.872 4.669-4.664 6.29-10.765 4.447-16.732-1.464-4.749-4.874-8.586-7.672-11.377-2.248-2.243-4.854-4.534-7.616-6.968-3.187-2.806-6.49-5.706-9.741-8.952-3.249-3.249-6.144-6.551-8.947-9.741zM715.679 808.524c18.414 18.414 41.521 23.091 53.737 10.872 4.667-4.667 6.293-10.765 4.447-16.735-1.464-4.751-4.877-8.586-7.672-11.382-2.243-2.24-4.849-4.531-7.613-6.963-3.19-2.808-6.487-5.706-9.741-8.955-3.254-3.254-6.152-6.559-8.96-9.749-2.427-2.755-4.726-5.368-6.963-7.611-2.798-2.798-6.633-6.208-11.382-7.675-5.97-1.841-12.063-0.22-16.732 4.452-12.209 12.219-7.537 35.333 10.88 53.745zM187.706 863.093c-2.376-2.688-4.605-5.228-6.779-7.411-2.721-2.721-6.454-6.037-11.082-7.473-5.809-1.787-11.743-0.212-16.292 4.329-11.894 11.896-7.337 34.396 10.593 52.322 17.928 17.93 40.418 22.482 52.317 10.586 4.547-4.547 6.131-10.483 4.332-16.289-1.436-4.626-4.746-8.358-7.47-11.075-2.186-2.186-4.726-4.421-7.414-6.779-3.105-2.729-6.321-5.555-9.482-8.719-3.167-3.167-5.996-6.387-8.722-9.49zM409.519 561.251c21.998 22.001 49.59 27.582 64.187 12.987 5.581-5.583 7.519-12.862 5.32-19.994-1.761-5.678-5.829-10.253-9.173-13.599-2.68-2.68-5.798-5.407-9.096-8.315-3.804-3.356-7.747-6.815-11.633-10.698-3.886-3.889-7.347-7.829-10.696-11.64-2.908-3.295-5.645-6.413-8.323-9.088-3.343-3.354-7.918-7.414-13.596-9.17-7.127-2.199-14.408-0.266-19.996 5.317-14.587 14.607-8.993 42.199 13.005 64.2zM765.727 289.011c-2.222-2.217-5.263-4.923-9.022-6.083-4.726-1.457-9.546-0.174-13.256 3.525-9.685 9.679-5.985 27.989 8.614 42.581 14.584 14.592 32.894 18.294 42.578 8.607 3.694-3.694 4.979-8.525 3.523-13.258-1.16-3.766-3.866-6.799-6.080-9.014-1.777-1.772-3.84-3.589-6.029-5.517-2.519-2.217-5.141-4.521-7.713-7.094-2.578-2.575-4.882-5.187-7.094-7.721-1.933-2.189-3.75-4.25-5.522-6.026z" />
<glyph unicode="&#xe910;" glyph-name="orientacion" d="M511.997 897.046c-17.24 0-34.574-0.93-51.747-2.77 5.775 9.434 7.866 19.96 5.687 30.193-4.516 21.252-26.164 35.531-53.872 35.531-5.661 0-11.432-0.614-17.173-1.826-16.068-3.418-30.173-11.136-39.708-21.739-10.2-11.341-14.279-24.821-11.486-37.952 2.192-10.337 8.541-19.187 17.878-25.472-91.163-30.109-172.834-88.135-231.501-164.847-64.502-84.337-98.599-185.19-98.599-291.642 0-264.957 215.56-480.521 480.521-480.521s480.528 215.564 480.528 480.521c0 264.964-215.567 480.525-480.528 480.525zM412.064 927.48c12.513 0 21.047-4.966 22.065-9.767 0.567-2.679-0.964-6.147-4.036-9.491-7.806 3.733-16.777 4.838-25.382 3.008-8.508-1.81-16.189-6.409-21.846-12.949-4.066 1.81-6.799 4.331-7.359 6.967-0.638 3.005 1.33 7.037 5.261 10.781 5.056 4.818 12.671 8.581 20.883 10.327 3.512 0.745 7.017 1.125 10.415 1.125zM616.163 82.617l-38.321 62.152c-1.857 3.015-5.415 4.546-8.884 3.804-3.475-0.739-6.104-3.576-6.577-7.091l-9.706-72.244c-13.5-1.558-27.154-2.35-40.678-2.35-90.817 0-176.343 34.39-241.718 97.015 0.695 0.275 1.363 0.648 1.984 1.121l189.611 144.109c12.684-5.912 26.419-9.582 40.245-10.757l48.111-100.973c1.672-3.508 5.54-5.409 9.323-4.6 3.797 0.806 6.544 4.113 6.644 7.994l2.891 111.77c10.589 5.795 20.138 13.134 28.491 21.897l56.8-20.134c3.666-1.296 7.732 0.084 9.844 3.341 2.119 3.257 1.726 7.537-0.95 10.351l-41.494 43.693c4.61 11.214 7.437 22.928 8.414 34.944l100.926 48.104c3.508 1.669 5.409 5.523 4.603 9.323-0.806 3.797-4.113 6.544-7.994 6.644l-103.199 2.666 138.982 182.873c0.467 0.618 0.839 1.283 1.115 1.971 37.435-39.124 65.398-86.426 81.292-137.552l-62.152-38.321c-3.015-1.86-4.546-5.419-3.804-8.89 0.735-3.468 3.572-6.1 7.087-6.57l72.237-9.706c1.568-13.55 2.354-27.205 2.354-40.678 0-93.382-36.367-181.184-102.413-247.227-40.141-40.141-89.491-70.018-143.065-86.677zM244.041 359.567c-0.739 3.472-3.576 6.1-7.091 6.574l-72.237 9.716c-1.565 13.55-2.354 27.201-2.354 40.668 0 93.399 36.37 181.201 102.413 247.234 40.141 40.137 89.491 70.021 143.058 86.691l38.324-62.162c1.86-3.018 5.429-4.549 8.887-3.804 3.472 0.739 6.1 3.579 6.574 7.091l9.71 72.241c13.49 1.561 27.141 2.35 40.671 2.35 90.82 0 176.35-34.39 241.721-97.015-0.688-0.275-1.35-0.648-1.974-1.118l-189.615-144.109c-12.674 5.909-26.406 9.582-40.242 10.757l-48.121 100.976c-1.672 3.505-5.543 5.409-9.32 4.6-3.797-0.806-6.547-4.113-6.648-7.994l-2.887-111.777c-10.586-5.791-20.138-13.127-28.494-21.89l-56.803 20.134c-3.663 1.296-7.732-0.087-9.844-3.341-2.115-3.257-1.722-7.537 0.953-10.351l41.494-43.696c-4.603-11.217-7.423-22.931-8.407-34.947l-100.933-48.098c-3.505-1.672-5.405-5.526-4.6-9.323s4.113-6.544 7.994-6.644l103.209-2.666-138.982-182.873c-0.473-0.621-0.846-1.289-1.121-1.981-37.431 39.103-65.392 86.409-81.296 137.562l62.148 38.314c3.022 1.853 4.546 5.412 3.811 8.88zM556.912 343.149c-8.333-5.107-17.428-8.733-27.030-10.774-9.3-1.981-18.828-2.421-28.437-1.259-0.376 0.077-0.759 0.131-1.138 0.154-2.505 0.342-5.002 0.799-7.484 1.373l57.643 43.82c0.611 0.46 1.148 0.997 1.608 1.605l43.797 57.633c0.097-0.426 0.198-0.856 0.289-1.286 7.551-35.605-8.212-72.281-39.248-91.267zM494.105 500.677c5.963 1.266 12.016 1.904 17.989 1.904 3.508 0 7.077-0.225 10.613-0.668 0.316-0.060 0.635-0.101 0.95-0.124 2.525-0.346 5.036-0.806 7.527-1.38l-57.653-43.814c-0.604-0.46-1.145-0.997-1.605-1.605l-43.804-57.639c-0.097 0.43-0.195 0.859-0.285 1.289-9.851 46.402 19.879 92.173 66.268 102.037z" />
<glyph unicode="&#xe911;" glyph-name="paso-atras" d="M844.036 959.040c-5.759 2.664-12.858-0.219-21.297-8.644l-472.423-472.44c-4.004-3.552-6.887-7.768-8.658-12.641v451.151c0 11.541-4.216 21.521-12.641 29.949-8.43 8.43-18.412 12.646-29.942 12.646h-85.178c-11.541 0-21.519-4.216-29.949-12.646-8.43-8.435-12.644-18.414-12.644-29.949v-936.89c0-11.532 4.211-21.526 12.641-29.942 8.439-8.437 18.417-12.651 29.949-12.651h85.169c11.53 0 21.51 4.214 29.942 12.651 8.425 8.414 12.641 18.407 12.641 29.942v451.14c1.778-4.435 4.661-8.663 8.658-12.644l472.435-472.451c8.439-8.43 15.538-11.325 21.297-8.67 5.775 2.666 8.661 9.763 8.661 21.297v979.501c0 11.532-2.885 18.631-8.661 21.291z" />
<glyph unicode="&#xe912;" glyph-name="paso-de-avance" d="M840.040 946.405c-8.421 8.43-18.408 12.642-29.942 12.642h-85.175c-11.525 0-21.519-4.212-29.942-12.642-8.423-8.439-12.651-18.417-12.651-29.949v-451.159c-2.209 4.873-5.104 9.092-8.663 12.642l-472.429 472.447c-8.43 8.43-15.529 11.318-21.293 8.654-5.766-2.664-8.649-9.763-8.649-21.295v-979.496c0-11.532 2.883-18.631 8.649-21.298 5.764-2.657 12.863 0.233 21.293 8.679l472.44 472.44c3.564 3.988 6.444 8.206 8.67 12.642v-451.135c0-11.532 4.219-21.533 12.635-29.942 8.437-8.437 18.422-12.651 29.942-12.651h85.191c11.532 0 21.526 4.214 29.942 12.651 8.423 8.407 12.651 18.408 12.651 29.942v936.879c-0.021 11.544-4.256 21.519-12.67 29.949z" />
<glyph unicode="&#xe913;" glyph-name="seleccionar-objeto" d="M823.035 375.719c0 0-4.086 47.763-35.461 73.996-17.533 14.852-34.318 16.785-46.225 15.642v-89.816h-21.487v98.383c-6.415 13.929-19.246 35.461-39.635 43.546-20.301 8.173-41.085 6.152-53.827 3.691v-101.372h-21.399v113.806c-9.095 10.941-25.443 23.992-54.092 25.706-15.467 0.923-29.264-5.317-40.162-12.171l-2.108-97.416h-21.532l0.66 176.861c69.427 21.752 120.178 85.817 120.178 162.493-0.043 94.429-76.587 170.931-170.972 170.931-94.429 0-170.929-76.501-170.929-170.974 0-73.908 47.060-136.305 112.708-160.165v-300.159c0 0-55.277 118.947-102.25 134.635-46.885 15.642-76.061-12.524-76.061-12.524s53.257-98.691 92.319-208.103c25.090-70.392 32.605-151.99 54.75-192.416 56.288-103.305 128.175-114.026 214.915-114.026 86.562 0 204.324-8.040 235.611 63.978 31.328 71.93 24.999 375.473 24.999 375.473zM339.6 789.114c0 53.739 43.589 97.373 97.373 97.373 53.739 0 97.373-43.634 97.373-97.373 0-35.021-18.631-65.383-46.27-82.564l0.22 62.967c0 0-12.611 65.56-53.212 65.56-40.733 0-56.288-56.245-56.288-56.245v-67.361c-23.642 17.708-39.197 45.742-39.197 77.642z" />
<glyph unicode="&#xe914;" d="M1011.19 476.97c0 0-277.284 275.51-499.19 275.51s-499.19-275.51-499.19-275.51c-16.948-15.963-17.145-42.174 0-57.94 0 0 277.284-275.51 499.19-275.51s499.19 275.51 499.19 275.51c16.948 15.963 17.145 41.977 0 57.94zM514.168 226.094c-121.989 0-220.921 98.931-220.921 220.921s98.931 220.921 220.921 220.921 220.921-98.931 220.921-220.921-98.931-220.921-220.921-220.921z" />
<glyph unicode="&#xe915;" d="M511.606 590.091c-77.45 0-140.317-63.261-140.317-140.908s62.867-140.908 140.317-140.908 140.317 63.261 140.317 140.908c0 77.647-62.867 140.908-140.317 140.908zM564.422 448.788c-24.043 0-43.554 19.51-43.554 43.948s19.51 43.948 43.554 43.948 43.554-19.51 43.554-43.948-19.313-43.948-43.554-43.948z" />
<glyph unicode="&#xe916;" d="M821.998 848.062l-628.668-744.942 9.854-47.298 662.171 804.065z" />
<glyph unicode="&#xe917;" d="M930.784 99.966l-692.915 685.623-47.889-5.912 749.081-723.855z" />
<glyph unicode="&#xe918;" glyph-name="ViewTrue" d="M1011.223 476.948c0 0-277.262 275.605-499.194 275.605s-499.196-275.605-499.196-275.605c-17.038-15.981-17.188-42.215 0-57.893 0 0 277.264-275.607 499.196-275.607s499.194 275.607 499.194 275.607c16.886 15.979 17.188 42.061 0 57.893zM514.14 226.069c-121.973 0-221.027 98.906-221.027 221.027s98.904 221.027 221.027 221.027c122.122 0 221.025-99.054 221.025-221.027s-99.054-221.027-221.025-221.027zM511.576 590.024c-77.495 0-140.366-63.171-140.366-140.818 0-77.645 62.871-140.818 140.366-140.818s140.366 63.173 140.366 140.818c0 77.645-62.869 140.818-140.366 140.818zM564.497 448.753c-23.971 0-43.571 19.602-43.571 43.875s19.6 43.873 43.571 43.873 43.571-19.6 43.571-43.873-19.298-43.875-43.571-43.875z" />
<glyph unicode="&#xe919;" glyph-name="zoom" d="M999.602-31.269l-287.271 298.755c73.273 73.485 118.667 174.791 118.667 286.517 0 223.878-182.118 405.996-405.996 405.996s-405.996-182.118-405.996-405.996 182.118-405.996 405.996-405.996c98.27 0 188.46 35.128 258.755 93.418l287.967-299.49c3.789-3.963 8.855-5.935 13.939-5.935 4.833 0 9.647 1.798 13.398 5.394 7.695 7.405 7.927 19.642 0.541 27.337zM560.333 515.337h-96.666v-96.666c0-21.344-17.323-38.666-38.666-38.666s-38.666 17.323-38.666 38.666v96.666h-96.666c-21.344 0-38.666 17.323-38.666 38.666s17.323 38.666 38.666 38.666h96.666v96.666c0 21.344 17.323 38.666 38.666 38.666s38.666-17.323 38.666-38.666v-96.666h96.666c21.344 0 38.666-17.323 38.666-38.666s-17.323-38.666-38.666-38.666z" />
</font>
</defs>
</svg>
